<svg xmlns="http://www.w3.org/2000/svg" version="1.1" xmlns:xlink="http://www.w3.org/1999/xlink" width="360" height="360"><svg version="1.1" xmlns="http://www.w3.org/2000/svg" width="360" height="360">
<path d="M0 0 C0.74507812 0.64324219 1.49015625 1.28648438 2.2578125 1.94921875 C22.69052825 21.016996 32.77244016 48.216028 34.1875 75.6328125 C34.71076071 104.87000485 22.86399774 132.08556422 2.91015625 153.2421875 C-17.34687234 173.03542361 -44.94288744 183.97439388 -73.19140625 184.09765625 C-87.79092976 183.802108 -101.62214035 180.91179275 -115 175 C-115.99 174.67 -116.98 174.34 -118 174 C-118 173.34 -118 172.68 -118 172 C-118.73734375 171.8875293 -119.4746875 171.77505859 -120.234375 171.65917969 C-123.09037642 170.97845901 -124.82476048 170.07556532 -127.25 168.453125 C-128.0234375 167.9375 -128.796875 167.421875 -129.59375 166.890625 C-130.3878125 166.34921875 -131.181875 165.8078125 -132 165.25 C-132.7940625 164.7240625 -133.588125 164.198125 -134.40625 163.65625 C-138.70812243 160.7596559 -142.46072461 157.82873286 -146 154 C-146.86625 153.13375 -147.7325 152.2675 -148.625 151.375 C-149.40875 150.59125 -150.1925 149.8075 -151 149 C-151.515625 148.525625 -152.03125 148.05125 -152.5625 147.5625 C-158 141.65217391 -158 141.65217391 -158 138 C-158.66 138 -159.32 138 -160 138 C-160.28875 137.030625 -160.5775 136.06125 -160.875 135.0625 C-161.64214682 131.89335797 -161.64214682 131.89335797 -164 131 C-165.10729455 129.07801205 -166.13873983 127.11181397 -167.125 125.125 C-167.93324219 123.52011719 -167.93324219 123.52011719 -168.7578125 121.8828125 C-170 119 -170 119 -170 116 C-170.66 115.67 -171.32 115.34 -172 115 C-174.341903 108.65344288 -175.48166832 101.87085245 -176.5703125 95.21484375 C-176.90281479 92.97046873 -176.90281479 92.97046873 -178 91 C-179.10814123 75.79890978 -178.84216099 59.21494823 -173 45 C-172.61074341 44.0402124 -172.61074341 44.0402124 -172.21362305 43.06103516 C-168.46048774 33.9576857 -164.23703606 25.36088213 -159 17 C-158.61972656 16.37480469 -158.23945313 15.74960938 -157.84765625 15.10546875 C-155.63008886 11.58764096 -152.99884837 8.86556622 -150 6 C-149.41992188 5.36449219 -148.83984375 4.72898438 -148.2421875 4.07421875 C-108.45076647 -38.51621859 -42.43978334 -36.76277336 0 0 Z " fill="#5D74F1" transform="translate(252,102)"></path>
<path d="M0 0 C9.6367324 8.04141639 18.59244127 16.85613148 27.57545471 25.6125164 C30.58463027 28.54409918 33.60791406 31.45708659 36.67041016 34.33300781 C39.6539066 37.135693 42.59272709 39.9789302 45.50616455 42.8543129 C46.61427583 43.93378061 47.736998 44.9984786 48.87469482 46.0467186 C58.17570993 54.64712884 58.17570993 54.64712884 58.43994141 61.33990479 C58.31828444 65.30290215 57.76073186 69.11264622 57 73 C56.67 73 56.34 73 56 73 C55.89042969 73.73863281 55.78085937 74.47726563 55.66796875 75.23828125 C52.84401353 93.30700289 46.5709784 106.70875751 35 121 C34.33613281 121.84175781 33.67226563 122.68351562 32.98828125 123.55078125 C21.1656586 137.67037059 0.94949182 152.11952819 -17.77786255 154.32751465 C-21.96271981 153.9021442 -23.76463701 152.0431076 -26.54638672 149.13476562 C-27.06420212 148.61782639 -27.58201752 148.10088715 -28.11552429 147.56828308 C-29.81819365 145.86144404 -31.49864287 144.13436873 -33.1796875 142.40625 C-34.3580703 141.21667295 -35.53778764 140.02841651 -36.71878052 138.84143066 C-39.8195718 135.71775962 -42.90192229 132.57649137 -45.98077393 129.43121338 C-49.12728277 126.22326473 -52.2909023 123.03229012 -55.453125 119.83984375 C-61.65228923 113.5763818 -67.83207472 107.29422603 -74 101 C-73.01 100.505 -73.01 100.505 -72 100 C-70.01171875 100.7421875 -70.01171875 100.7421875 -67.6875 101.875 C-60.70007796 105.26787386 -54.01993879 105.24232002 -46.375 105.3125 C-45.34503906 105.34150391 -44.31507813 105.37050781 -43.25390625 105.40039062 C-31.46777731 105.4967552 -20.79778641 101.58535559 -12.25 93.3046875 C-10.72013955 91.59889309 -9.34575162 89.85350453 -8 88 C-7.278125 87.01 -6.55625 86.02 -5.8125 85 C-0.31618345 74.72359802 -0.5387892 61.42738624 -0.48828125 50.09765625 C-0.47137628 48.63934377 -0.45321859 47.18104534 -0.43388367 45.72276306 C-0.38700714 41.94019979 -0.35679939 38.15769341 -0.33044434 34.37493896 C-0.30031835 30.49268342 -0.25390105 26.61062323 -0.20898438 22.72851562 C-0.12366381 15.15244207 -0.05600789 7.57635312 0 0 Z " fill="#0129F8" transform="translate(226,127)"></path>
<path d="M0 0 C7.59 0 15.18 0 23 0 C23.01981934 1.92714844 23.03963867 3.85429687 23.06005859 5.83984375 C23.12801986 12.23012018 23.20480912 18.62024365 23.28752708 25.01034546 C23.33732542 28.88202378 23.38365589 32.75367697 23.421875 36.62548828 C23.45893709 40.36684538 23.5053516 44.10798344 23.55806351 47.84915161 C23.57649695 49.27153657 23.59164502 50.69396828 23.60334396 52.11642456 C23.69549515 62.94028379 23.98826601 72.25548117 31 81 C37.25141214 85.72667747 44.42601042 85.68422491 52 85 C57.66013006 83.46164855 62.00003725 81.19224322 65 76 C68.65013986 68.19115094 68.4749651 60.11879327 68.51171875 51.68359375 C68.52859316 50.21670557 68.54674705 48.7498316 68.56611633 47.28297424 C68.61332335 43.45100347 68.643321 39.61909034 68.66955566 35.78692627 C68.69951039 31.86499652 68.74598887 27.94326491 68.79101562 24.02148438 C68.87671483 16.34773835 68.94267683 8.67402008 69 1 C76.59 1 84.18 1 92 1 C92.06826576 9.34627646 92.12309482 17.6923293 92.15543652 26.03881168 C92.17097295 29.91603683 92.19198577 33.79305813 92.22631836 37.67016602 C92.25934803 41.42440682 92.2769429 45.17845381 92.28463173 48.9328289 C92.29009825 50.35228965 92.30076794 51.77174197 92.31719017 53.19111824 C92.49387519 69.1219425 90.90412993 83.51462885 79.8125 95.75 C70.15861969 104.80452632 59.01023848 107.35219888 46.1875 107.3125 C45.15818359 107.32861328 44.12886719 107.34472656 43.06835938 107.36132812 C30.66804771 107.36917146 20.36205821 103.75236395 11.11328125 95.26953125 C0.47303066 83.5572151 -0.45515395 68.5942128 -0.29296875 53.515625 C-0.28735893 51.96336278 -0.28309541 50.41109516 -0.28010559 48.85882568 C-0.26876565 44.81462393 -0.23939501 40.77075623 -0.20599365 36.72668457 C-0.17505578 32.58346065 -0.16155009 28.44018165 -0.14648438 24.296875 C-0.11451227 16.19774785 -0.06183618 8.09895423 0 0 Z " fill="#F9FAFC" transform="translate(134,126)"></path>
<path d="M0 0 C0.73945358 0.74763611 1.47890717 1.49527222 2.24076843 2.26556396 C4.49507693 4.49961437 6.77747005 6.6429105 9.14770508 8.75097656 C13.50655585 12.65914642 17.78328437 16.64728879 22.03979492 20.66650391 C23.87534983 22.37680082 25.73277994 24.06394254 27.61206055 25.72607422 C43.94338911 40.22137034 43.94338911 40.22137034 45.33740234 50.55664062 C45.81565377 60.39804171 45.41374608 71.74288538 38.62724304 79.58660889 C32.68550869 84.92970977 26.56956063 85.40174873 18.90625 85.25 C13.63574869 84.79662354 10.41127484 83.18153242 6.3125 79.75 C-0.67515383 71.4403576 -0.53831343 64.48661877 -0.390625 54.00390625 C-0.38315581 52.44450102 -0.37746608 50.88508634 -0.37347412 49.32566833 C-0.35827089 45.24017998 -0.31903606 41.15526904 -0.2746582 37.07000732 C-0.23358999 32.89375619 -0.21543857 28.7174109 -0.1953125 24.54101562 C-0.15253562 16.36041341 -0.08435002 8.18027873 0 0 Z " fill="#0129F6" transform="translate(158,127)"></path>
<path d="M0 0 C8.0318116 12.0477174 5.87295037 33.85166916 3.77734375 47.3125 C2.36133568 54.02964381 0.20911086 60.50757495 -2 67 C-3.12526054 63.62421838 -2.58732549 62.33382434 -1.546875 59.05078125 C-0.58211954 55.43294827 -0.32069325 51.72172958 0 48 C0.33 48 0.66 48 1 48 C1.3881289 45.33161378 1.71021515 42.67939529 2 40 C2.11472656 39.25621094 2.22945313 38.51242188 2.34765625 37.74609375 C2.71863107 33.86772066 2.63015309 31.82871337 0.21484375 28.65234375 C-1.7830313 26.6544687 -3.81506212 24.78989331 -6 23 C-5.34 21.02 -4.68 19.04 -4 17 C-3.34 17.33 -2.68 17.66 -2 18 C-0.81304447 14.43913342 -0.64904582 11.02668976 -0.4375 7.3125 C-0.37272461 6.2596582 -0.37272461 6.2596582 -0.30664062 5.18554688 C-0.2008264 3.45724794 -0.09993419 1.7286489 0 0 Z " fill="#697CE9" transform="translate(281,151)"></path>
<path d="M0 0 C1.12894876 0.93274109 2.25300876 1.87140122 3.375 2.8125 C4.00148437 3.33457031 4.62796875 3.85664063 5.2734375 4.39453125 C7 6 7 6 9 9 C6.33333333 7.66666667 3.66666667 6.33333333 1 5 C1.33 5.99 1.66 6.98 2 8 C2.09347338 9.87471299 2.12792662 11.75259741 2.12939453 13.62963867 C2.13254669 14.78481491 2.13569885 15.93999115 2.13894653 17.13017273 C2.1369223 18.38014542 2.13489807 19.6301181 2.1328125 20.91796875 C2.13376923 22.20431717 2.13472595 23.49066559 2.13571167 24.81599426 C2.13718638 27.54213662 2.13504309 30.26824622 2.13037109 32.99438477 C2.12470229 36.46976711 2.12793605 39.94507173 2.13394356 43.42045116 C2.1384544 46.75296302 2.13528189 50.08545469 2.1328125 53.41796875 C2.13483673 54.65782028 2.13686096 55.89767181 2.13894653 57.1750946 C2.09390671 73.90609329 2.09390671 73.90609329 -1 77 C-1.59834554 78.52056618 -2.13506656 80.06612088 -2.625 81.625 C-2.88539063 82.44226563 -3.14578125 83.25953125 -3.4140625 84.1015625 C-3.60742188 84.72804688 -3.80078125 85.35453125 -4 86 C-4.66 86 -5.32 86 -6 86 C-5.80664062 85.39414063 -5.61328125 84.78828125 -5.4140625 84.1640625 C-5.15367187 83.32617188 -4.89328125 82.48828125 -4.625 81.625 C-4.36976563 80.81289062 -4.11453125 80.00078125 -3.8515625 79.1640625 C-1.27914754 69.60600691 -0.66638221 60.44752784 -0.5859375 50.5859375 C-0.56718887 49.12048294 -0.54761282 47.65503876 -0.5272522 46.18960571 C-0.47631464 42.36588713 -0.43648583 38.54213369 -0.39910889 34.71826172 C-0.35882606 30.80297498 -0.30784557 26.88782838 -0.2578125 22.97265625 C-0.16150879 15.31520094 -0.07696109 7.65767677 0 0 Z " fill="#102DE9" transform="translate(226,127)"></path>
<path d="M0 0 C1.6463056 4.03642398 0.22405751 6.67970565 -1.375 10.5625 C-1.83648437 11.69816406 -2.29796875 12.83382812 -2.7734375 14.00390625 C-3.17820312 14.99261719 -3.58296875 15.98132813 -4 17 C-5.13442694 20.40328083 -5.06398478 22.98335142 -5 26.5625 C-4.88912809 32.77825619 -4.88912809 32.77825619 -6 35 C-6.27379279 38.30501089 -6.23856479 41.62240546 -6.25 44.9375 C-6.25394775 45.9157373 -6.25789551 46.89397461 -6.26196289 47.90185547 C-6.20303264 55.42670208 -5.39896913 62.62341301 -3.97949219 70.00756836 C-3.27796225 73.70606347 -2.90736911 76.39646242 -4 80 C-6.16393321 74.15738034 -7.58380331 68.43785832 -8.5703125 62.28515625 C-8.89555886 59.98036149 -8.89555886 59.98036149 -10 58 C-11.07637473 43.23467136 -11.30072601 25.66039757 -5 12 C-4.10054126 9.83483585 -3.20493718 7.66806773 -2.3125 5.5 C-1.54306961 3.66607742 -0.7727205 1.83253872 0 0 Z " fill="#A5B0EA" transform="translate(84,135)"></path>
<path d="M0 0 C1.32 0 2.64 0 4 0 C4 0.66 4 1.32 4 2 C5.65 1.67 7.3 1.34 9 1 C9.33 1.99 9.66 2.98 10 4 C10.99 4 11.98 4 13 4 C13 4.66 13 5.32 13 6 C16.3 5.67 19.6 5.34 23 5 C23.33 5.66 23.66 6.32 24 7 C26.80980673 7.69227032 26.80980673 7.69227032 30.0625 8.125 C31.16722656 8.29257812 32.27195313 8.46015625 33.41015625 8.6328125 C34.26480469 8.75398438 35.11945313 8.87515625 36 9 C36 9.66 36 10.32 36 11 C48.57134096 10.63031508 48.57134096 10.63031508 60.8984375 8.41015625 C65.20608555 7.56944427 69.63145456 7.8530209 74 8 C61.7065163 16.1956558 39.22586067 13.80883104 25.3203125 11.171875 C17.58064976 9.5355083 10.23988279 7.19936729 3 4 C2.01 3.67 1.02 3.34 0 3 C0 2.01 0 1.02 0 0 Z " fill="#8B98E6" transform="translate(134,273)"></path>
<path d="M0 0 C0.66 0.33 1.32 0.66 2 1 C-1.30414012 6.15057136 -3.38118999 8.37788866 -9 11 C-9.33 11.680625 -9.66 12.36125 -10 13.0625 C-11 15 -11 15 -13.9375 15.9375 C-17.1306191 16.72761609 -17.1306191 16.72761609 -18.75 19.3125 C-20.03069335 21.94170595 -20.03069335 21.94170595 -20.875 24.5625 C-22.31608208 27.6848445 -24.28071708 28.94395681 -27 31 C-27.556875 31.7425 -28.11375 32.485 -28.6875 33.25 C-29.3371875 34.11625 -29.3371875 34.11625 -30 35 C-30.66 35 -31.32 35 -32 35 C-32.99 37.97 -33.98 40.94 -35 44 C-35.66 44 -36.32 44 -37 44 C-35.7151482 39.65962998 -34.05657524 36.20811267 -31.5625 32.4375 C-29.79548028 29.74689762 -28.0439831 27.07467401 -26.41015625 24.30078125 C-24.62121461 21.38198173 -22.47977034 19.37195423 -20 17 C-19.0409375 15.99259766 -19.0409375 15.99259766 -18.0625 14.96484375 C-12.52606114 9.20101544 -6.58475755 4.5170206 0 0 Z " fill="#A7B2EA" transform="translate(122,91)"></path>
<path d="M0 0 C2.5 1.25 2.5 1.25 5 3 C5 4.32 5 5.64 5 7 C5.66 7 6.32 7 7 7 C8.625 8.375 8.625 8.375 10 10 C10 10.66 10 11.32 10 12 C11.32 12.33 12.64 12.66 14 13 C13.95875 14.03125 13.9175 15.0625 13.875 16.125 C14.08026087 22.48808704 15.50229207 25.64284544 20 30 C21.25 32.75 21.25 32.75 22 35 C17.55092795 33.51697598 15.25420608 29.91714499 13 26 C13 25.34 13 24.68 13 24 C12.34 24 11.68 24 11 24 C10.71125 23.030625 10.4225 22.06125 10.125 21.0625 C9.35785318 17.89335797 9.35785318 17.89335797 7 17 C5.89270545 15.07801205 4.86126017 13.11181397 3.875 11.125 C3.33617188 10.05507812 2.79734375 8.98515625 2.2421875 7.8828125 C1 5 1 5 1 2 C0.34 1.67 -0.32 1.34 -1 1 C-0.67 0.67 -0.34 0.34 0 0 Z " fill="#7283EA" transform="translate(81,216)"></path>
<path d="M0 0 C0.78375 0.268125 1.5675 0.53625 2.375 0.8125 C4.169375 1.4003125 4.169375 1.4003125 6 2 C6.69730225 2.25193115 7.39460449 2.5038623 8.11303711 2.76342773 C14.90414863 5.05956084 21.0585771 5.39284629 28.1875 5.25 C29.22841797 5.24484375 30.26933594 5.2396875 31.34179688 5.234375 C36.65496944 5.18039991 41.76513196 4.9181381 47 4 C46.01 4.33 45.02 4.66 44 5 C44 5.66 44 6.32 44 7 C39.60782566 9.19608717 33.63534812 8.18499202 28.8125 8.1875 C27.59240234 8.19974609 26.37230469 8.21199219 25.11523438 8.22460938 C19.03541385 8.23451674 13.72069684 8.14420193 8 6 C7.67 6.66 7.34 7.32 7 8 C5.83035398 6.8572081 4.66435444 5.71068285 3.5 4.5625 C2.8503125 3.92441406 2.200625 3.28632813 1.53125 2.62890625 C0 1 0 1 0 0 Z " fill="#142ED9" transform="translate(152,227)"></path>
<path d="M0 0 C0.33 0 0.66 0 1 0 C4.07617851 21.14872724 2.90003422 39.72127347 -4 60 C-5.12526054 56.62421838 -4.58732549 55.33382434 -3.546875 52.05078125 C-2.58211954 48.43294827 -2.32069325 44.72172958 -2 41 C-1.67 41 -1.34 41 -1 41 C-0.24290189 35.63482028 0.13878201 30.42266242 0.09765625 25 C0.0962413 24.2788501 0.09482635 23.5577002 0.09336853 22.81469727 C0.08783381 20.54308676 0.07529423 18.27158 0.0625 16 C0.05747654 14.44661602 0.05291512 12.89323048 0.04882812 11.33984375 C0.03788589 7.55985672 0.0206676 3.77994586 0 0 Z " fill="#C8D1F2" transform="translate(283,158)"></path>
<path d="M0 0 C7 6 7 6 9 9 C6.33333333 7.66666667 3.66666667 6.33333333 1 5 C1 25.13 1 45.26 1 66 C0.67 66 0.34 66 0 66 C0 44.22 0 22.44 0 0 Z " fill="#1A34D1" transform="translate(226,127)"></path>
<path d="M0 0 C0.99 0.33 1.98 0.66 3 1 C-0.23285568 10.35646592 -8.09064269 19.00838843 -15 26 C-15.33 26 -15.66 26 -16 26 C-16 24.35 -16 22.7 -16 21 C-14.68 21 -13.36 21 -12 21 C-11.67 19.02 -11.34 17.04 -11 15 C-9.68 15 -8.36 15 -7 15 C-7 13.68 -7 12.36 -7 11 C-6.01 11 -5.02 11 -4 11 C-3.67 8.69 -3.34 6.38 -3 4 C-2.01 4 -1.02 4 0 4 C0 2.68 0 1.36 0 0 Z " fill="#5F72E0" transform="translate(269,230)"></path>
<path d="M0 0 C-17.03846154 13 -17.03846154 13 -26 13 C-26 12.34 -26 11.68 -26 11 C-25.01 10.67 -24.02 10.34 -23 10 C-22.67 9.34 -22.34 8.68 -22 8 C-20.0390625 7.1484375 -20.0390625 7.1484375 -17.625 6.375 C-16.83351562 6.11460937 -16.04203125 5.85421875 -15.2265625 5.5859375 C-13 5 -13 5 -10 5 C-10.33 3.35 -10.66 1.7 -11 0 C-10.67 0.66 -10.34 1.32 -10 2 C-9.44570312 1.77183594 -8.89140625 1.54367187 -8.3203125 1.30859375 C-7.59585938 1.02113281 -6.87140625 0.73367188 -6.125 0.4375 C-5.40570313 0.14746094 -4.68640625 -0.14257812 -3.9453125 -0.44140625 C-2 -1 -2 -1 0 0 Z " fill="#6174E2" transform="translate(243,265)"></path>
<path d="M0 0 C4.48632152 1.42268935 7.03803663 3.66247289 10.3125 7 C11.19550781 7.886875 12.07851562 8.77375 12.98828125 9.6875 C15 12 15 12 15 14 C19.76307437 14.95261487 24.1666528 15.08333357 29 15 C25.02431536 17.65045643 21.78910229 18.71784448 17 18 C13.44349789 15.7007113 10.76357146 12.75572246 7.9375 9.625 C7.16728516 8.81804687 6.39707031 8.01109375 5.60351562 7.1796875 C0 1.25298774 0 1.25298774 0 0 Z " fill="#1131E5" transform="translate(188,263)"></path>
<path d="M0 0 C6.90548748 0.47082869 12.74432897 3.16774274 19 6 C19.73347656 6.32871094 20.46695313 6.65742187 21.22265625 6.99609375 C23.82093459 8.46369272 25.25074048 10.62600493 27 13 C24.69 13 22.38 13 20 13 C19.67 11.35 19.34 9.7 19 8 C17.865625 7.87625 16.73125 7.7525 15.5625 7.625 C14.386875 7.41875 13.21125 7.2125 12 7 C11.67 6.34 11.34 5.68 11 5 C9.17489003 4.21984379 7.31393324 3.52204594 5.4375 2.875 C4.42558594 2.52179688 3.41367188 2.16859375 2.37109375 1.8046875 C1.19740234 1.40636719 1.19740234 1.40636719 0 1 C0 0.67 0 0.34 0 0 Z " fill="#93A1E7" transform="translate(206,78)"></path>
<path d="M0 0 C0.33 0.99 0.66 1.98 1 3 C-0.14453125 5.12109375 -0.14453125 5.12109375 -1.8125 7.4375 C-4.13363654 10.67092145 -4.13363654 10.67092145 -5.92578125 14.203125 C-7 16 -7 16 -9.0234375 16.86328125 C-10.18746094 17.08564453 -10.18746094 17.08564453 -11.375 17.3125 C-12.14585937 17.47363281 -12.91671875 17.63476562 -13.7109375 17.80078125 C-16.0798979 18.00695357 -17.74765803 17.71478432 -20 17 C-19.28714844 16.64808594 -18.57429687 16.29617187 -17.83984375 15.93359375 C-10.23967143 12.0158737 -3.64927117 7.99696745 0 0 Z " fill="#2841D7" transform="translate(219,213)"></path>
<path d="M0 0 C1.40958984 0.02707031 1.40958984 0.02707031 2.84765625 0.0546875 C3.53730469 0.07789063 4.22695312 0.10109375 4.9375 0.125 C0.84846827 2.85102116 -3.00528828 3.13106644 -7.8125 3.8125 C-8.74666748 3.94696533 -9.68083496 4.08143066 -10.64331055 4.2199707 C-18.6327176 5.26676422 -26.07582064 5.14327095 -34.0625 4.125 C-34.0625 3.795 -34.0625 3.465 -34.0625 3.125 C-32.79535156 3.07601563 -31.52820313 3.02703125 -30.22265625 2.9765625 C-28.52341904 2.90145809 -26.82420124 2.82591368 -25.125 2.75 C-23.87879883 2.70359375 -23.87879883 2.70359375 -22.60742188 2.65625 C-17.59048585 2.42199618 -12.97363401 1.73800295 -8.09594727 0.55712891 C-5.37188389 -0.02176318 -2.77772597 -0.07032218 0 0 Z " fill="#B2BBEB" transform="translate(203.0625,280.875)"></path>
<path d="M0 0 C0.11255783 3.16568908 -0.04800874 5.96645272 -1 9 C-3.38599243 11.49696882 -6.02223508 13.27031878 -9 15 C-9.38218767 13.34385343 -9.71395102 11.67542976 -10 10 C-9 9 -9 9 -6.4375 8.9375 C-5.633125 8.958125 -4.82875 8.97875 -4 9 C-4.3403125 7.6078125 -4.3403125 7.6078125 -4.6875 6.1875 C-5 3 -5 3 -3.6875 1.125 C-2 0 -2 0 0 0 Z " fill="#1436F2" transform="translate(254,248)"></path>
<path d="M0 0 C0.66 0.33 1.32 0.66 2 1 C-1.30414012 6.15057136 -3.38118999 8.37788866 -9 11 C-10.40466953 13.05093145 -10.40466953 13.05093145 -11 15 C-12.32 14.67 -13.64 14.34 -15 14 C-10.40152315 8.51766007 -6.02552612 3.89148562 0 0 Z " fill="#6877DC" transform="translate(122,91)"></path>
<path d="M0 0 C0.66 0 1.32 0 2 0 C2.67090715 7.24579719 0.58125682 11.75838097 -3 18 C-4.20838642 14.37484074 -3.77144091 12.19740731 -3.1875 8.4375 C-3.01605469 7.28121094 -2.84460938 6.12492188 -2.66796875 4.93359375 C-2 2 -2 2 0 0 Z " fill="#415AE8" transform="translate(276,213)"></path>
<path d="M0 0 C1.32 0 2.64 0 4 0 C4 0.66 4 1.32 4 2 C4.97839844 2.09087891 4.97839844 2.09087891 5.9765625 2.18359375 C10.68716217 2.63519991 15.34201638 3.14195039 20 4 C20 3.34 20 2.68 20 2 C23.3 1.34 26.6 0.68 30 0 C25.40985901 4.59014099 21.39142959 5.13845444 15.0625 5.3125 C9.02742357 5.21503914 4.409861 4.409861 0 0 Z " fill="#2B43DB" transform="translate(165,207)"></path>
<path d="M0 0 C2.5 1.25 2.5 1.25 5 3 C5 4.32 5 5.64 5 7 C5.66 7 6.32 7 7 7 C7.70074844 10.153368 8 12.72724974 8 16 C7.34 16 6.68 16 6 16 C5.15973604 14.23244474 4.32801278 12.46082737 3.5 10.6875 C3.0359375 9.70136719 2.571875 8.71523437 2.09375 7.69921875 C1 5 1 5 1 2 C0.34 1.67 -0.32 1.34 -1 1 C-0.67 0.67 -0.34 0.34 0 0 Z " fill="#9BA6E7" transform="translate(81,216)"></path>
<path d="M0 0 C5.66129431 4.69766975 10.85228904 9.74723372 16 15 C15.34 15.66 14.68 16.32 14 17 C12.5 15.625 12.5 15.625 11 14 C11 13.34 11 12.68 11 12 C10.195625 11.731875 9.39125 11.46375 8.5625 11.1875 C7.716875 10.795625 6.87125 10.40375 6 10 C5.67 9.01 5.34 8.02 5 7 C4.154375 6.154375 3.30875 5.30875 2.4375 4.4375 C1.633125 3.633125 0.82875 2.82875 0 2 C0 1.34 0 0.68 0 0 Z " fill="#1131E8" transform="translate(237,138)"></path>
<path d="M0 0 C-0.99 0 -1.98 0 -3 0 C-3 0.66 -3 1.32 -3 2 C-5.50100574 3.25050287 -7.00343052 3.02993449 -9.7890625 2.87890625 C-10.73007813 2.83056641 -11.67109375 2.78222656 -12.640625 2.73242188 C-13.62546875 2.67634766 -14.6103125 2.62027344 -15.625 2.5625 C-16.61757812 2.51029297 -17.61015625 2.45808594 -18.6328125 2.40429688 C-21.08884568 2.27441051 -23.5444936 2.13943836 -26 2 C-26 1.67 -26 1.34 -26 1 C-25.44014404 0.97494385 -24.88028809 0.9498877 -24.3034668 0.92407227 C-21.76458695 0.80796255 -19.22606447 0.6853042 -16.6875 0.5625 C-15.36588867 0.50352539 -15.36588867 0.50352539 -14.01757812 0.44335938 C-12.74624023 0.38051758 -12.74624023 0.38051758 -11.44921875 0.31640625 C-10.66893311 0.27974854 -9.88864746 0.24309082 -9.0847168 0.20532227 C-1.68631964 -0.52334058 -1.68631964 -0.52334058 0 0 Z " fill="#2E46DA" transform="translate(199,232)"></path>
<path d="M0 0 C0.33 0 0.66 0 1 0 C1.93384391 9.79498505 -0.80333396 17.90091845 -4 27 C-5.12526054 23.62421838 -4.58732549 22.33382434 -3.546875 19.05078125 C-2.58211954 15.43294827 -2.32069325 11.72172958 -2 8 C-1.67 8 -1.34 8 -1 8 C-0.67 5.36 -0.34 2.72 0 0 Z " fill="#929FE8" transform="translate(283,191)"></path>
<path d="M0 0 C0.66 0 1.32 0 2 0 C2.6875 1.75 2.6875 1.75 3 4 C1.6875 5.9375 1.6875 5.9375 0 8 C-0.495 9.2375 -0.495 9.2375 -1 10.5 C-2.02010414 13.05026035 -3.27289691 14.88037348 -5 17 C-4.35083537 10.99522721 -2.14204997 5.599219 0 0 Z " fill="#6577DE" transform="translate(85,135)"></path>
<path d="M0 0 C-1 3 -1 3 -2.9609375 4.16796875 C-3.75757813 4.50441406 -4.55421875 4.84085937 -5.375 5.1875 C-6.56222656 5.70376953 -6.56222656 5.70376953 -7.7734375 6.23046875 C-10 7 -10 7 -13 7 C-13 6.34 -13 5.68 -13 5 C-12.01 4.67 -11.02 4.34 -10 4 C-9.67 3.34 -9.34 2.68 -9 2 C-5.93853104 0.03191281 -3.59835033 -0.19990835 0 0 Z " fill="#4C62DD" transform="translate(230,271)"></path>
<path d="M0 0 C0.680625 0.721875 1.36125 1.44375 2.0625 2.1875 C5.09214518 5.23455693 8.46217304 7.57207954 12 10 C9.8614515 12.1385485 8.86724686 12.42655063 6 13 C5.67 12.01 5.34 11.02 5 10 C5.33 9.34 5.66 8.68 6 8 C5.01 7.67 4.02 7.34 3 7 C0 2.66666667 0 2.66666667 0 0 Z " fill="#6375DC" transform="translate(141,216)"></path>
<path d="M0 0 C4.91935902 4.11619836 9.52647956 8.40410362 14 13 C13.01 13.33 12.02 13.66 11 14 C10.5978125 13.0409375 10.5978125 13.0409375 10.1875 12.0625 C9.11332248 9.66868314 9.11332248 9.66868314 6 9 C4.3125 7.5625 4.3125 7.5625 3 6 C3 5.34 3 4.68 3 4 C2.01 3.67 1.02 3.34 0 3 C0 2.01 0 1.02 0 0 Z " fill="#1232E6" transform="translate(269,170)"></path>
<path d="M0 0 C4.91935902 4.11619836 9.52647956 8.40410362 14 13 C13.34 13.66 12.68 14.32 12 15 C11.67 14.01 11.34 13.02 11 12 C10.34 12 9.68 12 9 12 C9 11.34 9 10.68 9 10 C8.34 10 7.68 10 7 10 C7 9.34 7 8.68 7 8 C6.34 8 5.68 8 5 8 C5 7.34 5 6.68 5 6 C4.34 6 3.68 6 3 6 C3 5.34 3 4.68 3 4 C2.01 3.67 1.02 3.34 0 3 C0 2.01 0 1.02 0 0 Z " fill="#1232E7" transform="translate(253,154)"></path>
<path d="M0 0 C0.99 0 1.98 0 3 0 C3.2475 0.5775 3.495 1.155 3.75 1.75 C4.91727158 4.10720859 4.91727158 4.10720859 7 5.9375 C9.17463005 8.18008724 10.02073226 10.06219679 11 13 C6.55092795 11.51697598 4.25420608 7.91714499 2 4 C2 3.34 2 2.68 2 2 C1.34 2 0.68 2 0 2 C0 1.34 0 0.68 0 0 Z " fill="#B3BBEB" transform="translate(92,238)"></path>
<path d="M0 0 C4.4609303 1.40200667 6.84677303 3.59783406 10 7 C10.598125 7.598125 11.19625 8.19625 11.8125 8.8125 C12.204375 9.204375 12.59625 9.59625 13 10 C12.67 10.99 12.34 11.98 12 13 C9.99698146 11.0238076 7.99750133 9.04425526 6 7.0625 C5.42765625 6.49853516 4.8553125 5.93457031 4.265625 5.35351562 C2.82474495 3.92121224 1.41012857 2.46258871 0 1 C0 0.67 0 0.34 0 0 Z " fill="#1131E7" transform="translate(171,246)"></path>
<path d="M0 0 C0.495 0.66 0.99 1.32 1.5 2 C4.76269871 5.91523845 8.35925053 9.43878146 12 13 C11.67 13.66 11.34 14.32 11 15 C6.71 10.71 2.42 6.42 -2 2 C-1.34 1.34 -0.68 0.68 0 0 Z " fill="#5571FB" transform="translate(272,169)"></path>
<path d="M0 0 C0.99 0.33 1.98 0.66 3 1 C1.6062718 5.43458973 -0.60582235 7.87378374 -4 11 C-3.67 8.69 -3.34 6.38 -3 4 C-2.01 4 -1.02 4 0 4 C0 2.68 0 1.36 0 0 Z " fill="#4F64DE" transform="translate(269,230)"></path>
<path d="M0 0 C0.66 0 1.32 0 2 0 C1.67 1.32 1.34 2.64 1 4 C-0.41377782 4.36552803 -1.83120576 4.71695495 -3.25 5.0625 C-4.03890625 5.25972656 -4.8278125 5.45695313 -5.640625 5.66015625 C-8.10394822 6.01497267 -9.65604132 5.76877544 -12 5 C-7.77050005 2.58314288 -4.87664009 1.65166856 0 2 C0 1.34 0 0.68 0 0 Z " fill="#1936E0" transform="translate(211,225)"></path>
<path d="M0 0 C3.3 0.33 6.6 0.66 10 1 C10 1.66 10 2.32 10 3 C6.33694766 3.74926071 3.57644848 4.2380014 0 3 C0 2.01 0 1.02 0 0 Z " fill="#8492E3" transform="translate(160,281)"></path>
<path d="M0 0 C3.02788635 3.46044155 4.98556464 7.52249221 6 12 C5.578125 14.25 5.578125 14.25 5 16 C1.91532502 10.60540561 0.44356295 6.20988129 0 0 Z " fill="#B6C0EE" transform="translate(275,135)"></path>
<path d="M0 0 C-3.20945602 2.8503026 -5.49988548 3.43451699 -9.75 3.6875 C-10.73484375 3.75324219 -11.7196875 3.81898437 -12.734375 3.88671875 C-13.48203125 3.92410156 -14.2296875 3.96148437 -15 4 C-12.60939149 2.40626099 -10.69171821 1.34702924 -8.0625 0.3125 C-7.39347656 0.04050781 -6.72445312 -0.23148437 -6.03515625 -0.51171875 C-3.67169662 -1.0787676 -2.2807201 -0.76024003 0 0 Z " fill="#6978DB" transform="translate(152,81)"></path>
<path d="M0 0 C1.98 0.66 3.96 1.32 6 2 C6 2.66 6 3.32 6 4 C6.66 4 7.32 4 8 4 C8.33 4.99 8.66 5.98 9 7 C5.00499382 5.6302836 2.19990508 3.74277578 -1 1 C-0.67 0.67 -0.34 0.34 0 0 Z " fill="#A5AFE8" transform="translate(110,258)"></path>
<path d="M0 0 C1.134375 0.020625 2.26875 0.04125 3.4375 0.0625 C-1.3125 4.9375 -1.3125 4.9375 -3.5625 6.0625 C-3.94468767 4.40635343 -4.27645102 2.73792976 -4.5625 1.0625 C-3.5625 0.0625 -3.5625 0.0625 0 0 Z " fill="#4B63E3" transform="translate(248.5625,256.9375)"></path>
<path d="M0 0 C3.37503669 1.1858237 5.64722731 2.27573689 8 5 C7.67 5.66 7.34 6.32 7 7 C4.525 6.01 4.525 6.01 2 5 C2 4.01 2 3.02 2 2 C1.34 2 0.68 2 0 2 C0 1.34 0 0.68 0 0 Z " fill="#8795E4" transform="translate(256,110)"></path>
<path d="M0 0 C0.66 0.33 1.32 0.66 2 1 C-0.59692816 4.89539223 -2.83425768 5.91712884 -7 8 C-7.66 7.67 -8.32 7.34 -9 7 C-6.03 4.69 -3.06 2.38 0 0 Z " fill="#B3BEEC" transform="translate(122,91)"></path>
<path d="M0 0 C1.14926266 0.95421808 2.29430541 1.91352045 3.4375 2.875 C4.07558594 3.40867187 4.71367187 3.94234375 5.37109375 4.4921875 C7 6 7 6 8 8 C4.82461668 7.65978036 3.97723135 6.97533396 1.75 4.5625 C0 2 0 2 0 0 Z " fill="#5370FB" transform="translate(194,270)"></path>
<path d="M0 0 C2.97 0.495 2.97 0.495 6 1 C6.33 2.65 6.66 4.3 7 6 C3.63279613 4.60667426 2.0140476 3.0210714 0 0 Z " fill="#DDE8FB" transform="translate(143,218)"></path>
<path d="M0 0 C4.38227147 8.13850416 4.38227147 8.13850416 3.55078125 12.1875 C3.36902344 12.785625 3.18726562 13.38375 3 14 C-0.44419134 4.58997722 -0.44419134 4.58997722 0 0 Z " fill="#C3CCF1" transform="translate(77,201)"></path>
<path d="M0 0 C2.31 1.98 4.62 3.96 7 6 C6.34 6.66 5.68 7.32 5 8 C5 7.34 5 6.68 5 6 C3.68 6 2.36 6 1 6 C0.67 4.02 0.34 2.04 0 0 Z " fill="#6776DE" transform="translate(250,103)"></path>
<path d="M0 0 C3.37462715 0.54723683 5.08235 1.0549 8 3 C3.545 3.495 3.545 3.495 -1 4 C-0.67 2.68 -0.34 1.36 0 0 Z " fill="#6477E0" transform="translate(209,80)"></path>
<path d="M0 0 C2.25 -0.375 2.25 -0.375 5 0 C7.3125 3 7.3125 3 9 6 C5.88802644 4.50164236 2.91164984 2.86022073 0 1 C0 0.67 0 0.34 0 0 Z " fill="#A7B1EA" transform="translate(123,268)"></path>
<path d="M0 0 C-3.72965139 2.03435531 -5.66905042 3 -10 3 C-10 2.34 -10 1.68 -10 1 C-3.375 -1.125 -3.375 -1.125 0 0 Z " fill="#1A33D4" transform="translate(195,208)"></path>
<path d="M0 0 C1.5625 1.25 1.5625 1.25 3 3 C2.6875 5.1875 2.6875 5.1875 2 7 C0.62437146 5.71034824 -0.70766393 4.37310707 -2 3 C-2 2.34 -2 1.68 -2 1 C-1.34 0.67 -0.68 0.34 0 0 Z " fill="#526EF8" transform="translate(180,145)"></path>
<path d="M0 0 C0.66 0 1.32 0 2 0 C1.67 1.98 1.34 3.96 1 6 C0.34 6 -0.32 6 -1 6 C-1 6.66 -1 7.32 -1 8 C-1.66 7.67 -2.32 7.34 -3 7 C-2.01 4.69 -1.02 2.38 0 0 Z " fill="#6575DF" transform="translate(90,126)"></path>
<path d="M0 0 C2.64 0 5.28 0 8 0 C4.81237635 2.12508244 2.73487777 2.5020163 -1 3 C-0.67 2.01 -0.34 1.02 0 0 Z " fill="#6073E0" transform="translate(209,278)"></path>
<path d="M0 0 C0.99 0.495 0.99 0.495 2 1 C2.4140625 3.06640625 2.4140625 3.06640625 2.625 5.5625 C2.69976562 6.38878906 2.77453125 7.21507812 2.8515625 8.06640625 C2.92503906 9.02353516 2.92503906 9.02353516 3 10 C2.67 8.68 2.34 7.36 2 6 C1.34 6 0.68 6 0 6 C0 4.02 0 2.04 0 0 Z " fill="#95A1E2" transform="translate(76,195)"></path>
<path d="M0 0 C2.31 1.98 4.62 3.96 7 6 C6.01 6.33 5.02 6.66 4 7 C2 6 2 6 0.875 2.9375 C0.58625 1.968125 0.2975 0.99875 0 0 Z " fill="#0929EC" transform="translate(178,148)"></path>
<path d="M0 0 C3.7952131 1.49097658 5.61042731 3.75700849 8 7 C5.33333333 5.66666667 2.66666667 4.33333333 0 3 C0 2.01 0 1.02 0 0 Z " fill="#1332E5" transform="translate(227,129)"></path>
<path d="" fill="#FFFFFF" transform="translate(0,0)"></path>
</svg><style>@media (prefers-color-scheme: light) { :root { filter: none; } }
@media (prefers-color-scheme: dark) { :root { filter: none; } }
</style></svg>